<?xml version="1.0" encoding="UTF-8" standalone="no"?>
<svg
   xmlns:dc="http://purl.org/dc/elements/1.1/"
   xmlns:cc="http://creativecommons.org/ns#"
   xmlns:rdf="http://www.w3.org/1999/02/22-rdf-syntax-ns#"
   xmlns:svg="http://www.w3.org/2000/svg"
   xmlns="http://www.w3.org/2000/svg"
   viewBox="0 0 532.5 113.125"
   height="113.125"
   width="532.5"
   xml:space="preserve"
   version="1.1"
   id="svg3390"><metadata
     id="metadata3396"><rdf:RDF><cc:Work
         rdf:about=""><dc:format>image/svg+xml</dc:format><dc:type
           rdf:resource="http://purl.org/dc/dcmitype/StillImage" /><dc:title></dc:title></cc:Work></rdf:RDF></metadata><defs
     id="defs3394"><clipPath
       id="clipPath3404"
       clipPathUnits="userSpaceOnUse"><path
         id="path3406"
         d="m 0,90.5 426,0 L 426,0 0,0 0,90.5 Z" /></clipPath></defs><g
     transform="matrix(1.25,0,0,-1.25,0,113.125)"
     id="g3398"><g
       id="g3400"><g
         clip-path="url(#clipPath3404)"
         id="g3402"><g
           transform="translate(20.6262,44.5479)"
           id="g3408"><path
             id="path3410"
             style="fill:#76c697;fill-opacity:1;fill-rule:nonzero;stroke:none"
             d="m 0,0 -7.282,-6.859 c 2.445,-2.487 7.949,-7.311 7.949,-7.311 0,0 11.596,-10.159 16.598,-17.349 l 4.206,-6.044 4.067,6.138 c 4.831,7.291 16.664,17.785 16.664,17.785 0,0 5.023,4.461 7.291,6.731 L 42.071,-0.18 21.292,-20.368 0,0 Z" /></g><g
           transform="translate(58.3555,84.6924)"
           id="g3412"><path
             id="path3414"
             style="fill:#74a3c7;fill-opacity:1;fill-rule:nonzero;stroke:none"
             d="m 0,0 c -2.705,0 -5.342,-0.489 -7.814,-1.389 l 0,0.006 C -7.846,-1.395 -7.878,-1.409 -7.91,-1.421 -8.062,-1.477 -8.211,-1.54 -8.362,-1.6 c -0.309,-0.121 -0.616,-0.247 -0.919,-0.381 -0.172,-0.076 -0.342,-0.156 -0.512,-0.236 -0.289,-0.137 -0.575,-0.28 -0.858,-0.428 -0.155,-0.082 -0.311,-0.162 -0.465,-0.247 -0.367,-0.202 -0.727,-0.415 -1.082,-0.638 -0.059,-0.037 -0.121,-0.07 -0.179,-0.107 -0.16,-0.102 -0.312,-0.216 -0.469,-0.322 l 0,-12.777 3.876,3.129 c 0.368,0.348 0.752,0.678 1.156,0.981 2.223,1.667 4.955,2.626 7.814,2.626 7.221,0 13.095,-5.873 13.095,-13.09 0,-4.703 -1.529,-8.455 -4.096,-11.974 l 7.441,-6.745 c 3.975,5.131 6.655,11.012 6.655,18.719 C 23.095,-10.358 12.735,0 0,0" /></g><g
           transform="translate(34.6635,71.0286)"
           id="g3416"><path
             id="path3418"
             style="fill:#cb7872;fill-opacity:1;fill-rule:nonzero;stroke:none"
             d="m 0,0 3.82,-3.083 0,12.787 C 3.732,9.763 3.648,9.825 3.56,9.883 3.433,9.966 3.306,10.05 3.178,10.131 2.82,10.354 2.458,10.568 2.089,10.772 1.905,10.874 1.717,10.968 1.53,11.065 c -0.245,0.127 -0.491,0.252 -0.74,0.37 -0.209,0.099 -0.42,0.195 -0.632,0.288 -0.239,0.104 -0.48,0.203 -0.722,0.299 -0.215,0.086 -0.43,0.173 -0.648,0.253 -0.04,0.014 -0.078,0.032 -0.118,0.046 l 0,-0.007 c -2.438,0.873 -5.034,1.35 -7.696,1.35 -12.735,0 -23.096,-10.359 -23.096,-23.091 0,-7.704 2.478,-13.554 6.207,-18.589 l 7.357,6.929 c -2.248,3.363 -3.564,7.042 -3.564,11.66 0,7.219 5.875,13.091 13.096,13.091 2.808,0 5.495,-0.925 7.696,-2.539 C -0.922,0.826 -0.534,0.498 -0.161,0.153 -0.12,0.115 -0.078,0.078 -0.037,0.039 -0.024,0.027 -0.013,0.012 0,0" /></g><g
           transform="translate(95.8286,47.2305)"
           id="g3420"><path
             id="path3422"
             style="fill:#cb7872;fill-opacity:1;fill-rule:nonzero;stroke:none"
             d="M 0,0 C 0,16.794 12.698,28.264 29.083,28.264 41.126,28.264 48.09,21.71 51.94,14.91 L 41.946,9.995 c -2.294,4.424 -7.21,7.946 -12.863,7.946 -9.913,0 -17.122,-7.618 -17.122,-17.941 0,-10.322 7.209,-17.941 17.122,-17.941 5.653,0 10.569,3.441 12.863,7.946 l 9.994,-4.833 C 48.008,-21.628 41.126,-28.264 29.083,-28.264 12.698,-28.264 0,-16.794 0,0" /></g><g
           transform="translate(181.3545,39.7754)"
           id="g3424"><path
             id="path3426"
             style="fill:#cb7872;fill-opacity:1;fill-rule:nonzero;stroke:none"
             d="m 0,0 c 0,6.145 -3.687,11.469 -10.158,11.469 -6.473,0 -10.077,-5.324 -10.077,-11.469 0,-6.226 3.604,-11.551 10.077,-11.551 C -3.687,-11.551 0,-6.226 0,0 m -31.049,0 c 0,11.224 7.864,20.727 20.891,20.727 13.107,0 20.972,-9.503 20.972,-20.727 0,-11.306 -7.865,-20.809 -20.972,-20.809 -13.027,0 -20.891,9.503 -20.891,20.809" /></g><g
           transform="translate(225.4268,32.73)"
           id="g3428"><path
             id="path3430"
             style="fill:#cb7872;fill-opacity:1;fill-rule:nonzero;stroke:none"
             d="m 0,0 0,14.009 c -1.721,2.621 -5.489,4.506 -9.012,4.506 -5.898,0 -9.995,-4.67 -9.995,-11.552 0,-6.799 4.097,-11.469 9.995,-11.469 3.523,0 7.291,1.884 9.012,4.506 m 0,-12.78 0,5.079 c -3.113,-3.932 -7.455,-6.062 -12.207,-6.062 -9.995,0 -17.531,7.537 -17.531,20.726 0,12.945 7.455,20.809 17.531,20.809 4.67,0 9.094,-2.048 12.207,-6.062 l 0,20.153 10.486,0 0,-54.643 -10.486,0 z" /></g><g
           transform="translate(262.5352,52.228)"
           id="g3432"><path
             id="path3434"
             style="fill:#cb7872;fill-opacity:1;fill-rule:nonzero;stroke:none"
             d="m 0,0 c -6.472,0 -9.257,-4.833 -9.749,-8.766 l 19.498,0 C 9.503,-4.998 6.882,0 0,0 m -20.481,-12.453 c 0,11.47 8.438,20.727 20.481,20.727 11.797,0 19.826,-8.848 19.826,-21.792 l 0,-2.294 -29.411,0 c 0.655,-4.997 4.67,-9.175 11.388,-9.175 3.358,0 8.028,1.475 10.568,3.932 l 4.588,-6.717 C 13.026,-31.377 6.8,-33.261 0.655,-33.261 c -12.043,0 -21.136,8.11 -21.136,20.808" /></g><g
           transform="translate(327.1699,47.2305)"
           id="g3436"><path
             id="path3438"
             style="fill:#cb7872;fill-opacity:1;fill-rule:nonzero;stroke:none"
             d="m 0,0 c 0,9.667 -5.898,17.122 -17.122,17.122 l -9.913,0 0,-34.162 9.913,0 C -6.308,-17.04 0,-9.257 0,0 m -38.668,-27.281 0,54.644 21.546,0 C 0,27.363 11.879,16.467 11.879,0 11.879,-16.467 0,-27.281 -17.122,-27.281 l -21.546,0 z" /></g><g
           transform="translate(367.1445,29.4531)"
           id="g3440"><path
             id="path3442"
             style="fill:#cb7872;fill-opacity:1;fill-rule:nonzero;stroke:none"
             d="m 0,0 0,4.915 c -1.72,2.294 -4.997,3.441 -8.355,3.441 -4.097,0 -7.457,-2.13 -7.457,-5.981 0,-3.686 3.36,-5.816 7.457,-5.816 3.358,0 6.635,1.147 8.355,3.441 m 0,-9.503 0,4.096 c -2.703,-3.195 -7.373,-5.079 -12.534,-5.079 -6.308,0 -13.764,4.259 -13.764,13.108 0,9.257 7.456,12.779 13.764,12.779 5.243,0 9.913,-1.72 12.534,-4.833 l 0,5.325 c 0,4.014 -3.44,6.636 -8.684,6.636 -4.259,0 -8.192,-1.556 -11.551,-4.67 l -3.932,6.964 c 4.833,4.26 11.06,6.226 17.286,6.226 9.012,0 17.286,-3.605 17.286,-14.992 l 0,-25.56 -10.405,0 z" /></g><g
           transform="translate(384.7559,13.8052)"
           id="g3444"><path
             id="path3446"
             style="fill:#cb7872;fill-opacity:1;fill-rule:nonzero;stroke:none"
             d="m 0,0 c 0.901,-0.41 2.294,-0.655 3.277,-0.655 2.703,0 4.505,0.737 5.489,2.867 l 1.474,3.359 -16.056,40.143 11.141,0 10.322,-27.527 10.323,27.527 11.223,0 -18.596,-46.042 c -2.95,-7.455 -8.193,-9.421 -14.993,-9.585 -1.228,0 -3.85,0.246 -5.161,0.574 L 0,0 Z" /></g></g></g></g></svg>