<?xml version="1.0" encoding="utf-8"?>
<!-- Generator: Adobe Illustrator 20.1.0, SVG Export Plug-In . SVG Version: 6.00 Build 0)  -->
<svg version="1.1" id="Layer_1" xmlns="http://www.w3.org/2000/svg" xmlns:xlink="http://www.w3.org/1999/xlink" x="0px" y="0px"
	 viewBox="0 0 718.9 200" style="enable-background:new 0 0 718.9 200;" xml:space="preserve">
<style type="text/css">
	.st0{fill-rule:evenodd;clip-rule:evenodd;fill:#F2686C;}
</style>
<path class="st0" d="M156.3,54.8L156.3,54.8V56v1.2l0,0V56V54.8L156.3,54.8z M615,111c-0.1-1.1-0.1-2.2-0.1-3.4c0-1.3,0-2.7,0.1-4.1
	c0.1-1,0.2-2,0.3-3h0l0.2-1.4c0.9-7.4,2.5-14,4.8-19.6c2.3-5.7,5.3-10.6,9.1-14.5c3.8-4,8.4-7,13.8-9c5.4-2,11.5-3,18.4-3
	c1.5,0,3.3,0.2,5,0.4c1.8,0.2,3.5,0.5,4.8,0.8l3.1-21.1l0-0.1l0,0c0.1-0.9,0.4-1.6,0.7-2.3c0.3-0.7,0.8-1.4,1.3-1.9
	c0.6-0.5,1.2-0.9,2-1.2l0,0c0.7-0.3,1.5-0.4,2.4-0.4h4.3c0.9,0,1.7,0.1,2.5,0.4c0.8,0.3,1.4,0.8,1.9,1.4c0.5,0.6,0.8,1.3,1,2.1
	c0.2,0.7,0.2,1.6,0.1,2.5v0l0,0.1L680,105.6l0,0l-1.5,10.1l-0.2,1.4c-0.3,2.2-0.6,4-0.2,5.1c0.3,0.9,1.4,1.4,3.7,1.4
	c2.4,0,5.3-0.8,7.7-2.2c2.1-1.2,3.9-2.8,4.8-4.6l0.6-1.2l1.1,0.7c3,1.7,5.1,4.9,5.9,8.9c0.9,4.1,0.6,9.1-1.1,14.1
	c-1.7,5-4.7,10-9.2,14.3c-7,6.5-17.5,11.3-32,11.3h-93.4h-64.9c-5.9,0-11.5,0.2-16.4,1.2c-4.8,1-9,2.6-12.1,5.5
	c-0.6,0.5-1.3,0.9-2.1,1h0c-0.8,0.1-1.5,0-2.3-0.3l0,0c-0.7-0.3-1.3-0.9-1.7-1.5c-0.4-0.6-0.6-1.4-0.6-2.2
	c0.2-7.5,3.4-13.3,9.5-17.2c5.9-3.8,14.5-5.9,25.4-5.9h65.3h93c6.6,0,12.2-0.2,16.6-1.7c3.5-1.2,6.3-3.2,8.5-6.7
	c-3.2,0.7-6.2,0.8-9,0.4c-2.8-0.4-5.4-1.4-7.4-3c-2.1-1.6-3.6-3.8-4.5-6.6c-0.4-1.4-0.7-3-0.7-4.7c-2.7,3.2-6.5,7-10.7,10
	c-3.8,2.7-8.1,4.6-12.4,4.6c-1.2,0-2.3-0.1-3.5-0.2c-3.3-0.4-6.2-1.4-8.8-3c-2.6-1.6-4.9-3.7-6.7-6.3l-0.2-0.3
	c-5.6,6.4-14,11.2-22.6,10.5c-3.8-0.3-7.4-1.7-10-4.7c-2.3-2.7-3.3-5.7-3.7-8.9c-0.4-3.1-0.1-6.3,0.2-9.4c0.3-2.8,0.6-5.5,1-8.2
	c0.4-2.8,0.7-5.4,1.1-8l0,0c0.4-2.4,0.9-4.9,1.4-7.6c1.1-5.5,2.3-11.4,2.3-16c0-1.2-0.1-2.3-0.4-3.3h0c-0.2-0.9-0.6-1.7-1-2.4
	c-0.5-0.7-1.1-1.3-1.9-1.8c-0.8-0.5-1.8-0.8-2.9-1c-0.4-0.1-0.8-0.1-1.2-0.1c-0.4,0-0.8,0-1.3,0c-1.7,0-3.7,0.8-5.8,1.9
	c-2.8,1.6-5.6,3.8-7.9,5.9c-3.8,3.4-6.3,7.7-8.2,12.3c-1.8,4.7-2.9,9.7-3.7,14.7l-4.2,28.4c-0.1,0.9-0.3,1.7-0.7,2.4
	c-0.4,0.8-0.8,1.4-1.4,1.9h0c-0.6,0.5-1.3,0.9-2.1,1.2h0c-0.7,0.2-1.6,0.4-2.4,0.4h-3.5c-0.3,0-0.6,0-1-0.1h0
	c-0.7-0.1-1.4-0.3-2-0.5c-0.6-0.3-1.1-0.7-1.6-1.1c-0.5-0.5-0.8-1.1-1.1-1.8h0c-0.2-0.6-0.3-1.3-0.3-2.1l0,0l0-0.4v0
	c0-0.2,0-0.3,0-0.5l0-0.1l6.8-46.3l0,0l2.5-23.2l0-0.1l0,0h0c0.1-0.8,0.3-1.5,0.6-2.1c0.1-0.2,0.3-0.5,0.4-0.7l-0.1-0.1l1-0.9
	c0.5-0.4,1.1-0.7,1.8-1h0c0.6-0.2,1.3-0.3,2.1-0.4l0.1,0h0v0l3.4-0.1c2.6-0.1,4.2,0.1,5.3,0.8v0c1.3,0.8,1.8,2,1.9,3.6v0
	c0,0.4,0,0.8,0,1.2c0,0.4-0.1,0.9-0.2,1.3h0l-0.1,0.4v0l-0.1,0.8l0,0.1c-0.1,0.5-0.2,1.2-0.3,2c2.3-2.8,5.2-5.3,8.3-7.4
	c4.5-2.9,9.6-4.7,14.8-4.7c1.1,0,2.1,0,3.2,0.1c1,0.1,2,0.2,3,0.4h0c2.5,0.4,4.8,1.2,6.8,2.3c2,1.1,3.7,2.4,5.1,4.1
	c1.4,1.7,2.5,3.6,3.3,5.9c0.7,2.2,1.1,4.6,1.1,7.3c0,1-0.1,2-0.2,3.1c-0.1,1.1-0.3,2.2-0.4,3.3l0,0l-6.2,38.4h0l0,0.2
	c-0.4,2.7-0.8,5.1,0,5.9c1.9,1.8,8.9-2.9,13-6.5C614.3,115.6,615.2,113.4,615,111L615,111z M476.2,108.4c15.6,2.6,8.8,31.2-17.4,30
	c-0.9,0-1.9-0.1-2.8-0.3c-4.8-0.7-9.5-2.6-12.9-6.2c-1-1.1-2-2.4-2.7-3.8c-6,5.9-15.1,11.2-23.7,10.5c-3.8-0.3-7.4-1.7-10-4.7
	c-2.3-2.7-3.3-5.7-3.7-8.9c-0.4-3.1-0.1-6.3,0.2-9.4c0.3-2.8,0.6-5.5,1-8.2c0.4-2.8,0.7-5.4,1.1-8l0,0c0.4-2.4,0.9-4.9,1.4-7.6
	c1.1-5.5,2.3-11.4,2.3-16c0-1.2-0.1-2.3-0.4-3.3h0c-0.2-0.9-0.6-1.7-1-2.4c-0.5-0.7-1.1-1.3-1.9-1.8c-0.8-0.5-1.8-0.8-2.9-1
	c-0.4-0.1-0.8-0.1-1.2-0.1c-0.4,0-0.8,0-1.3,0c-1.7,0-3.8,0.8-5.8,1.9c-2.8,1.6-5.6,3.8-7.9,5.9c-3.8,3.4-6.3,7.7-8.2,12.3
	c-1.8,4.7-2.9,9.7-3.7,14.7l-4.2,28.4c-0.1,0.9-0.3,1.7-0.7,2.4c-0.4,0.8-0.8,1.4-1.4,1.9h0c-0.6,0.5-1.3,0.9-2.1,1.2h0
	c-0.7,0.2-1.6,0.4-2.4,0.4h-3.5l0,0l-0.4,0h-0.1l-0.4,0l0,0c-0.7-0.1-1.4-0.3-2-0.5c-0.6-0.3-1.1-0.7-1.6-1.1l0,0
	c-0.5-0.5-0.8-1.1-1.1-1.7l0,0c-0.2-0.6-0.3-1.3-0.3-2.1l0,0l0-0.4v-0.1l0-0.4l0,0l0,0l0-0.1l0.9-6c-9.7,8.8-22.6,13.9-35.7,14
	c-4.7,0-9.5-0.5-13.8-1.6c-4.1-1.1-7.7-2.6-10.7-4.8c-0.9-0.7-1.8-1.4-2.6-2.2v0c-0.8-0.8-1.6-1.6-2.3-2.5l-0.6-0.7
	c-5.2,7.5-13.3,12.5-22.6,11.8c-3.8-0.3-7.4-1.7-10-4.7c-1.3-1.6-2.3-3.5-2.8-5.9c-0.2-1.1-0.4-2.4-0.4-3.7c-2.7,3.2-6.5,7-10.6,10
	c-3.8,2.7-8.1,4.6-12.4,4.6c-1.2,0-2.3-0.1-3.5-0.2c-3.3-0.4-6.2-1.4-8.8-3c-2.4-1.4-4.4-3.3-6.2-5.5c-5.6,5.9-13.1,10.2-21.5,9.5
	c-3.8-0.3-7.4-1.7-10-4.7c-1.3-1.6-2.3-3.5-2.8-5.9c-0.2-1.2-0.4-2.4-0.4-3.8c-2.1,2.4-4.9,5.1-8,7.6c-4.6,3.6-9.9,6.5-15.3,6.5
	c-0.9,0-1.7,0-2.6-0.1c-0.8-0.1-1.7-0.1-2.5-0.3c-2.9-0.4-5.4-1.2-7.6-2.3h0c-2.2-1.2-4.1-2.7-5.6-4.5c-1.5-1.8-2.5-3.9-3.3-6.4
	c-0.7-2.4-1.1-5.1-1.1-8c0-1,0-2,0.1-3c0.1-1,0.2-2.1,0.4-3.2v0l6-41.2c-4.3,0-7.8,0.1-11.3,0.2c-4,0.1-8.1,0.1-13.4,0.2
	c-1.4,0-2.7,0.5-3.7,1.4h0c-1,0.9-1.7,2.1-1.9,3.5l-5.5,37.2c-0.4,2.8-0.6,5-0.6,6.8v0c0.1,1.6,0.3,2.8,0.9,3.7
	c3.1,4,8.1,1.9,12.3,0.1c2.5-1.1,4.8-2,6.6-1.7c1.8,0.3,3.3,1.4,4.3,2.9c0.4,0.7,0.8,1.6,0.9,2.4c0.2,0.9,0.2,1.8,0,2.7v0
	c-0.4,2.3-1.7,4.6-4.5,6.3c-2,1.2-4.5,2.2-7.3,2.8c-2.7,0.6-5.6,0.9-8.5,0.7c-0.9,0-1.9-0.1-2.8-0.3c-4.8-0.7-9.5-2.6-12.9-6.2
	c-3.4-3.6-5.4-8.9-5.1-16.2c0.1-1.2,0.2-2.4,0.3-3.6v0l6.4-42.5h-5.5c-0.9,0-1.7-0.1-2.4-0.3c-0.8-0.2-1.4-0.6-2-1.1l0,0
	c-0.6-0.6-1-1.3-1.2-2.1c-0.2-0.7-0.2-1.6-0.1-2.6l0,0l0.3-2.2c0.1-0.9,0.3-1.7,0.7-2.3c0.3-0.5,0.6-1,1-1.4v-0.1l0.5-0.4
	c0.6-0.5,1.3-0.8,2-1c0.7-0.2,1.5-0.3,2.4-0.3h6.4L97.3,38l0,0c0.1-0.8,0.3-1.6,0.5-2.2c0.3-0.7,0.6-1.3,1.1-1.9l0,0
	c0.5-0.6,1.2-1,2-1.3c0.7-0.3,1.5-0.4,2.5-0.4h4.4c1,0,1.9,0.2,2.6,0.5c0.8,0.4,1.4,0.9,1.8,1.7v0c0.3,0.6,0.5,1.3,0.6,2
	c0.1,0.7,0,1.4-0.1,2.2v0l0,0l0,0l-2.2,17l4.3,0h0c1.7,0,3.3,0,4.7-0.1l0,0h19.9c5.4,0,9.5,0.3,12.1,2.3c2.8,2,3.8,5.5,2.9,11.7
	l-6.4,42.2h0c-0.3,1.8-0.4,3.5-0.4,5.1c0,1.5,0.2,2.9,0.7,4l0.1,0.2c0.4,0.9,1.1,1.6,2.2,2.2c1.2,0.6,2.9,1,5.2,1h0.7
	c1.6,0,3.6-0.8,5.7-2h0c2.4-1.4,5.1-3.5,7.5-5.9c2.5-2.4,4.7-5.1,6.4-7.8c1.5-2.4,2.5-4.7,2.8-6.6l6.1-40.9l0,0
	c0.1-0.8,0.3-1.5,0.5-2.2h0c0.2-0.7,0.5-1.3,0.9-1.8l0,0c0.5-0.6,1.1-1,1.8-1.3h0c0.4-0.2,0.8-0.3,1.2-0.3v0l1.1-0.1l5.2-0.4
	c1.1-0.1,2,0,2.8,0.3c0.8,0.3,1.5,0.9,2,1.7c0.4,0.6,0.6,1.4,0.7,2.2c0,0.3,0,0.7,0,1h0.1l-0.2,1.4l-8.4,56.2l0,0l0,0.2v0
	c-0.4,2.7-0.8,5.1,0,5.8c2,1.8,12.5-5.3,14.3-7.6c-0.5-2.6-0.7-5.5-0.7-8.6c0-1.3,0.1-2.7,0.1-4.1c0.1-1,0.2-2,0.3-3h0l0.2-1.4
	c0.9-7.4,2.5-14,4.8-19.6c2.3-5.7,5.3-10.6,9.2-14.5c3.8-4,8.4-7,13.8-9c5.4-2,11.5-3,18.4-3c1.5,0,3.3,0.2,5,0.4
	c1.8,0.2,3.5,0.5,4.8,0.8l3.1-21.1l0,0l0,0l0,0c0.1-0.9,0.4-1.7,0.7-2.3c0.3-0.7,0.8-1.4,1.3-1.9c0.6-0.5,1.2-0.9,2-1.2v0
	c0.7-0.3,1.6-0.4,2.4-0.4h4.3c0.9,0,1.7,0.1,2.5,0.4c0.8,0.3,1.4,0.8,1.9,1.4h0c0.5,0.6,0.8,1.3,1,2.1c0.2,0.7,0.2,1.6,0.1,2.5v0
	l0,0.1l-10.7,71.9l0,0l-1.5,10.1l-0.2,1.4c-0.2,1.4-0.4,2.7-0.4,3.8c0,0.8,0.1,1.5,0.4,1.8c3.8,3.5,14.2-9.9,14.6-11
	c-0.4-2.4-0.6-5-0.6-7.7c0-1.4,0.1-2.8,0.1-4.3v0c0.1-1.5,0.2-3,0.4-4.6c0.8-6.6,2.2-12.5,4.4-17.7c2.2-5.2,5-9.7,8.7-13.4l0,0l0,0
	c3.7-3.7,8.1-6.5,13.4-8.4c5.3-1.9,11.3-2.9,18.2-2.9c4.1,0,7.8,0.5,11.1,1.5c3.3,1,6.1,2.5,8.4,4.4c2.3,2,4.1,4.4,5.3,7.4
	c1.2,2.8,1.8,6.1,1.8,9.7c0,10.4-5.3,16.6-12.9,20.2c-7.4,3.5-17,4.5-26,4.8h0l-0.2,0c-3,0.1-6.4,0.2-9.3,0.8c-4.5,1-7.9,3.5-6.4,10
	c0.3,1.3,0.6,2.4,1.1,3.4c0.5,1,1,2,1.7,2.8c1.5,1.9,3.6,3.3,6.3,4.3c2.8,1,6.2,1.5,10.4,1.5c7.2,0,14.9-2.9,21.6-7.4
	c14.2-9.4,17.1-16.4,19.4-31.8l0.1-0.9l0,0l2.5-23.2l0-0.1l0,0h0c0.1-0.8,0.3-1.5,0.7-2.1c0.1-0.2,0.3-0.5,0.4-0.7l-0.1-0.1l1-0.9
	c0.5-0.4,1.1-0.7,1.8-1h0c0.6-0.2,1.3-0.3,2.1-0.4l0.1,0h0v0l3.4-0.1c2.6-0.1,4.2,0.1,5.3,0.8v0c1.3,0.8,1.8,2,1.9,3.6v0
	c0,0.4,0,0.8,0,1.2c0,0.4-0.1,0.8-0.2,1.3l0,0.3c0,0.3-0.1,0.5-0.1,0.9l0,0.1c-0.1,0.5-0.2,1.2-0.3,2c2.3-2.8,5.2-5.3,8.3-7.4
	c4.5-2.9,9.6-4.7,14.8-4.7c1.1,0,2.1,0,3.2,0.1c1,0.1,2,0.2,3,0.4v0l0,0c2.5,0.5,4.8,1.2,6.8,2.3c2,1.1,3.7,2.4,5.1,4.1
	c1.4,1.7,2.5,3.6,3.3,5.9c0.7,2.2,1.1,4.6,1.1,7.3c0,1-0.1,2-0.2,3.1c-0.1,1.1-0.3,2.2-0.4,3.3h0l-6.2,38.4h0l0,0.2v0
	c-0.4,2.7-0.8,5.1,0,5.8c1.6,1.5,5.3-0.4,9-3.3c11.3-8.8,12.2-17.4,14.2-30.7l3-20.1h-5.5c-0.9,0-1.7-0.1-2.4-0.3
	c-0.8-0.2-1.5-0.6-2-1.1c-0.6-0.6-1-1.3-1.2-2.1c-0.2-0.8-0.2-1.6-0.1-2.6v0l0.3-2.2c0.1-0.9,0.3-1.7,0.7-2.3
	c0.4-0.7,0.9-1.3,1.5-1.8c0.6-0.5,1.3-0.8,2-1c0.7-0.2,1.5-0.3,2.4-0.3h6.4l2.7-17.8c0.1-0.8,0.3-1.6,0.5-2.2
	c0.3-0.7,0.6-1.4,1.1-1.9h0c0.5-0.6,1.2-1,2-1.3c0.7-0.3,1.5-0.4,2.5-0.4h4.4c1.1,0,1.9,0.2,2.6,0.5c0.8,0.4,1.4,0.9,1.8,1.7l0,0
	c0.3,0.6,0.5,1.3,0.6,2c0.1,0.7,0,1.4-0.1,2.2l0,0.1l0,0h0l-2.2,17l19.9-0.1v0c0.2,0,0.5,0,0.7,0.1c1.1,0.2,2.1,0.7,2.9,1.6
	c0.7,0.8,1.1,1.9,1.1,3.1c0,0.2,0,0.4,0,0.7h0l-0.1,0.8c-0.3,2.3-0.6,4.2-2.8,5.9v0c-0.6,0.4-1.2,0.8-1.9,1
	c-0.7,0.2-1.4,0.4-2.1,0.4c-2,0-3.4,0.1-4.7,0.1c-1.7,0.1-3.4,0.1-6.4,0.1c-0.4,0-0.8,0-1.2,0h0c-2.2,0-4.2,0-5.9,1.5
	c-1.5,1.4-1.8,3.1-2,5.1v0l-0.1,0.9v0l-5.1,34.6c-0.4,2.8-0.6,5-0.6,6.8v0c0.1,1.6,0.4,2.8,0.9,3.7c4.7,6.1,19.2-0.9,19-11.7
	c0-0.6,0.2-1.1,0.7-1.5C475,108.5,475.6,108.3,476.2,108.4L476.2,108.4z M704.7,54.8L704.7,54.8l0,1.2v1.2h0V56V54.8L704.7,54.8z
	 M533.3,68.5c1.7,0,3.3-0.7,4.5-1.8h0c1.2-1.1,2.1-2.6,2.3-4.3l0.2-1.1c0.2-1.2,0.1-2.3-0.3-3.4v0c-0.4-1.1-1-2-1.8-2.8
	c-0.9-0.8-1.9-1.4-2.9-1.7c-1.1-0.3-2.2-0.4-3.4-0.1c-4.4,0.9-8.7,3-12.4,5.8c-2.3,1.7-4.3,3.7-6.1,5.8c0.1-0.8,0.2-1.5,0.3-2l0-0.1
	c0-0.3,0.1-0.6,0.1-0.9l0-0.3c0.1-0.4,0.1-0.8,0.2-1.3c0-0.4,0.1-0.8,0-1.2v0c-0.1-1.6-0.6-2.8-1.9-3.6v0c-1.1-0.7-2.8-0.9-5.3-0.8
	l-3.4,0.1v0h0l-0.1,0c-0.8,0.1-1.5,0.2-2.1,0.4h0c-0.7,0.2-1.3,0.5-1.8,1l-1,0.9l0.1,0.1c-0.2,0.2-0.3,0.4-0.4,0.7
	c-0.3,0.6-0.5,1.3-0.7,2.1l0,0l0,0v0L495,83.4h0l-6.8,46.3l0,0.1c0,0.1,0,0.3,0,0.5l0,0l0,0.5c0,0.8,0.1,1.5,0.3,2.1h0
	c0.2,0.7,0.6,1.3,1.1,1.8c0.5,0.5,1,0.9,1.6,1.1c0.6,0.3,1.3,0.4,2,0.5h0c0.3,0,0.7,0.1,1,0.1h3.5c0.9,0,1.7-0.1,2.4-0.4h0
	c0.8-0.2,1.5-0.6,2.1-1.2h0c0.6-0.5,1.1-1.1,1.4-1.9c0.3-0.7,0.6-1.5,0.7-2.4l4.2-28.4c0.7-5,1.8-10,3.7-14.7
	c1.8-4.6,4.4-8.9,8.2-12.3c1.9-1.7,4-3.3,6.2-4.5C528.6,69.3,530.9,68.6,533.3,68.5L533.3,68.5z M664.6,101.2l0-0.2l5-33.5
	c-1.4-0.3-3.3-0.6-5.3-0.8c-1.8-0.2-3.7-0.3-5.5-0.3h-0.7c-3.3,0-6.3,0.5-9.1,1.5c-2.7,1.1-5.2,2.7-7.4,5.1
	c-2.3,2.5-4.2,5.7-5.8,9.9c-1.6,4.2-2.8,9.4-3.6,15.8l0,0.1l-0.2,1.7l0,0.3c-0.4,3.4-0.6,6.7-0.5,9.5c0.1,2.8,0.5,5.3,1.3,7.4
	c0.7,1.8,1.7,3.2,3.1,4.2c1.4,1,3.3,1.5,5.8,1.5c1.4,0,3.3-0.8,5.5-2.2c2.5-1.5,5.2-3.7,7.8-6.2c2.6-2.5,4.9-5.2,6.7-7.8
	C663.2,105,664.3,102.9,664.6,101.2L664.6,101.2z M69.6,78.6c-2,0-3.6-0.8-4.9-2.1c-1.3-1.3-2.2-3.2-2.4-5.1c-0.2-2-1.8-3.4-4-4.2v0
	c-1.7-0.6-3.8-0.9-6-0.8c-2.2,0.1-4.5,0.5-6.6,1.3c-3.7,1.4-6.7,4-7.2,7.7c-0.8,6.5,6,8.9,13.7,11.6C63,90.7,75.4,95.1,74,111.7h0
	l-0.2,1.4c-0.5,4-1.6,7.5-3.3,10.6c-1.7,3.2-4,5.8-6.9,8c-6.2,4.7-16.8,7.1-26.8,6.5c-9.1-0.5-17.7-3.5-22.2-9.5
	c-1.2-1.6-2.1-3.4-2.5-5.2c-0.5-1.9-0.5-3.9,0-5.7c0.5-1.8,1.6-3.5,3.2-4.7c1.1-0.8,2.4-1.5,4-1.9c2.4-0.6,4.4-0.3,6,0.7
	c1.7,1,3,2.8,3.8,5.1h0c0.3,0.8,0.7,1.6,1.1,2.3c1.9,2.9,5.1,4.3,8.6,4.7c3.6,0.5,7.6-0.1,10.8-1.2v0c1.5-0.5,2.7-1.1,3.8-1.8
	c1.2-0.8,2.2-1.8,2.9-3.1c0.7-1.2,1.2-2.6,1.4-4.4l0-0.1c1-7.5-6.4-10.1-14.4-12.9c-11-3.9-23.2-8.2-21.2-24.9
	c0.9-7.2,4.5-12.6,9.6-16.4c3.8-2.8,8.3-4.7,13.1-5.7c4.7-1,9.7-1.2,14.2-0.7c7.4,0.9,13.9,3.8,17.3,8.3c2,2.7,3,5.7,3,8.5
	c0,1.4-0.3,2.7-0.8,3.9v0c-0.5,1.2-1.4,2.3-2.5,3.1C74.5,77.8,72.4,78.6,69.6,78.6L69.6,78.6z M255.9,101.2l0-0.2l5-33.5
	c-1.4-0.3-3.3-0.6-5.3-0.8c-1.8-0.2-3.7-0.3-5.5-0.3h-0.7c-3.3,0-6.3,0.5-9.1,1.5c-2.8,1.1-5.2,2.7-7.4,5.1
	c-2.3,2.5-4.2,5.7-5.8,9.9c-1.6,4.2-2.8,9.4-3.6,15.8l0,0.1l-0.2,1.7l0,0.3c-0.4,3.4-0.6,6.7-0.5,9.5c0.1,2.8,0.5,5.3,1.3,7.4
	c0.7,1.8,1.7,3.2,3.1,4.2c1.4,1,3.3,1.5,5.8,1.5c1.4,0,3.4-0.8,5.5-2.2c2.5-1.5,5.2-3.7,7.8-6.2c2.6-2.5,4.9-5.2,6.7-7.8
	C254.6,105,255.6,102.9,255.9,101.2L255.9,101.2z M313.5,87.6c5.9,0,12.3-0.4,17.1-2.2h0c4.5-1.7,7.7-4.6,7.7-9.7
	c0-1.6-0.2-3.1-0.7-4.3h0c-0.5-1.2-1.2-2.1-2.1-2.9c-2.1-1.8-5.5-2.5-9-2.5c-4.3,0-8.7,1.1-11.6,2.7h0c-3.4,1.8-5.9,4.5-7.9,7.9
	c-1.8,3.1-3.2,6.7-4.3,10.7l1.9,0.1l0.2,0h0.1C307.3,87.5,310.2,87.6,313.5,87.6z"/>
</svg>
