<svg id="Layer_1" data-name="Layer 1" xmlns="http://www.w3.org/2000/svg" viewBox="0 0 100.31 100"><defs><style>.cls-1{fill:#78c58f;}</style></defs><title>logo-chat</title><path class="cls-1" d="M9.62,20.14h0a8,8,0,0,1,8-8H81.26a8,8,0,0,1,8,8V67.89h0a8,8,0,0,1-8,8H35.49L16,90.44c-3.5,2.61-6.36,1.18-6.36-3.22Zm7.88,59.22L32.84,67.89H81.26s0-47.75,0-47.75H17.58Zm29.11-39a1.06,1.06,0,0,0,.68-.26h0a1.07,1.07,0,0,0,.35-.64l0-.17a1.06,1.06,0,0,0,0-.51h0a1.07,1.07,0,0,0-.28-.43,1.08,1.08,0,0,0-.44-.26,1.06,1.06,0,0,0-.51,0,4.64,4.64,0,0,0-1.86.87,5.55,5.55,0,0,0-.92.88c0-.12,0-.22,0-.3h0l0-.13v0c0-.06,0-.13,0-.19a1.37,1.37,0,0,0,0-.19h0a.6.6,0,0,0-.28-.54h0a1.45,1.45,0,0,0-.8-.12l-.51,0h0a1.26,1.26,0,0,0-.32.06h0a.83.83,0,0,0-.27.15l-.16.13,0,0-.06.1a1,1,0,0,0-.1.32h0l-.37,3.48h0l-1,7h0v.07h0v.07a.92.92,0,0,0,.05.31h0a.73.73,0,0,0,.16.26.77.77,0,0,0,.24.17,1,1,0,0,0,.3.08h.67a1.19,1.19,0,0,0,.37-.05h0a.88.88,0,0,0,.31-.17h0a.88.88,0,0,0,.21-.28,1.17,1.17,0,0,0,.1-.36l.64-4.27a10.16,10.16,0,0,1,.55-2.21,4.79,4.79,0,0,1,2.16-2.52,2.3,2.3,0,0,1,1-.3Zm12.27,6.37c0-.17,0-.34,0-.51s0-.4,0-.62,0-.29,0-.45h0l0-.2A11.64,11.64,0,0,1,59.67,42,6.67,6.67,0,0,1,61,39.85a5.56,5.56,0,0,1,2.08-1.35A7.84,7.84,0,0,1,65.88,38a6.09,6.09,0,0,1,.74.06l.72.12L67.81,35h0a1.39,1.39,0,0,1,.1-.34.88.88,0,0,1,.2-.28.82.82,0,0,1,.3-.18h0a1.13,1.13,0,0,1,.37-.06h.64a1,1,0,0,1,.37.06.69.69,0,0,1,.29.21.74.74,0,0,1,.15.32,1.19,1.19,0,0,1,0,.38h0v0L68.63,46h0l-.23,1.52,0,.21a1.81,1.81,0,0,0,0,.76c.05.13.2.21.55.2a2.6,2.6,0,0,0,1.16-.33,1.64,1.64,0,0,0,.72-.69l.08-.18.17.1a2,2,0,0,1,.89,1.34A4.05,4.05,0,0,1,71.76,51a5.26,5.26,0,0,1-1.39,2.15,6.8,6.8,0,0,1-4.81,1.7H41.8a13,13,0,0,0-2.47.18,3.72,3.72,0,0,0-1.82.82.6.6,0,0,1-.31.15h0a.61.61,0,0,1-.34,0h0a.6.6,0,0,1-.35-.56,3,3,0,0,1,1.42-2.59,7,7,0,0,1,3.82-.88H65.51A8.15,8.15,0,0,0,68,51.68a2.29,2.29,0,0,0,1.27-1,3.9,3.9,0,0,1-1.35.06,2.36,2.36,0,0,1-1.12-.45,1.92,1.92,0,0,1-.67-1,2.63,2.63,0,0,1-.1-.71,8.94,8.94,0,0,1-1.6,1.5,3.35,3.35,0,0,1-1.86.69,4.21,4.21,0,0,1-.53,0,3.42,3.42,0,0,1-1.33-.44,3.27,3.27,0,0,1-1-.94l0,0a4.26,4.26,0,0,1-3.4,1.58,2.15,2.15,0,0,1-1.5-.71,2.41,2.41,0,0,1-.55-1.33,6.59,6.59,0,0,1,0-1.41c0-.42.09-.83.15-1.23s.11-.82.17-1.2h0c.06-.36.13-.74.21-1.14a13.61,13.61,0,0,0,.34-2.4,2.05,2.05,0,0,0-.05-.49h0a1.17,1.17,0,0,0-.15-.36.88.88,0,0,0-.29-.27,1.29,1.29,0,0,0-.44-.15l-.18,0h-.2a1.89,1.89,0,0,0-.87.29,6.88,6.88,0,0,0-1.19.89,4.81,4.81,0,0,0-1.22,1.84A10.07,10.07,0,0,0,50,45.4l-.64,4.27a1.15,1.15,0,0,1-.1.36.87.87,0,0,1-.21.28h0a.87.87,0,0,1-.31.17h0a1.19,1.19,0,0,1-.37.05H47.7a1,1,0,0,1-.3-.08.76.76,0,0,1-.24-.17A.72.72,0,0,1,47,50h0a.93.93,0,0,1-.05-.31h0v-.06h0s0-.05,0-.07h0l1-7h0l.37-3.48h0a1,1,0,0,1,.1-.32l.06-.1,0,0,.16-.13a.83.83,0,0,1,.27-.15h0a1.27,1.27,0,0,1,.32-.06h0l.51,0a1.45,1.45,0,0,1,.8.12h0a.6.6,0,0,1,.28.54h0a1.41,1.41,0,0,1,0,.19c0,.07,0,.13,0,.19h0v.06h0v.12h0c0,.08,0,.18,0,.3A5.56,5.56,0,0,1,52,38.73,4.15,4.15,0,0,1,54.22,38l.47,0,.45.06h0a3.5,3.5,0,0,1,1,.34,2.54,2.54,0,0,1,1.26,1.49,3.53,3.53,0,0,1,.16,1.1c0,.14,0,.3,0,.46s0,.32-.07.49h0l-.94,5.77h0v0c-.06.4-.12.77,0,.88.29.27,1.33-.44,1.95-1a1.12,1.12,0,0,0,.39-.93Zm7.44-1.46v0l.76-5c-.21,0-.49-.08-.79-.12a7.61,7.61,0,0,0-.83-.05h-.1a3.82,3.82,0,0,0-1.37.23,2.89,2.89,0,0,0-1.11.76A4.51,4.51,0,0,0,62,42.53a10.34,10.34,0,0,0-.54,2.36h0l0,.26v0a9.71,9.71,0,0,0-.08,1.43,3.53,3.53,0,0,0,.19,1.11,1.28,1.28,0,0,0,.46.63,1.5,1.5,0,0,0,.87.23,1.82,1.82,0,0,0,.83-.32,7.21,7.21,0,0,0,1.17-.93,7.66,7.66,0,0,0,1-1.17,2.64,2.64,0,0,0,.43-.89Zm-28.1-3.4a1,1,0,0,1-.74-.31,1.33,1.33,0,0,1-.36-.77.82.82,0,0,0-.6-.63h0a2.44,2.44,0,0,0-.9-.12,3.1,3.1,0,0,0-1,.2,1.52,1.52,0,0,0-1.08,1.15c-.12,1,.9,1.34,2.06,1.74,1.63.57,3.49,1.22,3.27,3.72h0l0,.2a4.4,4.4,0,0,1-.49,1.59,3.74,3.74,0,0,1-1,1.2,6.48,6.48,0,0,1-4,1A4.47,4.47,0,0,1,30,49.41a2.16,2.16,0,0,1-.38-.78,1.69,1.69,0,0,1,0-.86,1.34,1.34,0,0,1,.48-.71,1.66,1.66,0,0,1,.61-.28,1.16,1.16,0,0,1,.91.11,1.41,1.41,0,0,1,.57.77h0a1.56,1.56,0,0,0,.17.34,1.77,1.77,0,0,0,1.29.71,3.65,3.65,0,0,0,1.62-.18h0a2.54,2.54,0,0,0,.57-.27,1.4,1.4,0,0,0,.44-.46,1.67,1.67,0,0,0,.2-.65h0c.14-1.12-1-1.51-2.17-1.94-1.65-.58-3.49-1.23-3.19-3.74A3.51,3.51,0,0,1,32.55,39a5.11,5.11,0,0,1,2-.86,6.5,6.5,0,0,1,2.14-.1,3.77,3.77,0,0,1,2.59,1.24,2.19,2.19,0,0,1,.45,1.27,1.43,1.43,0,0,1-.12.59h0a1.18,1.18,0,0,1-.38.47,1.59,1.59,0,0,1-1,.28Z"/></svg>