<svg id="Layer_1" data-name="Layer 1" xmlns="http://www.w3.org/2000/svg" viewBox="0 0 100.31 100"><defs><style>.cls-1{fill:#ca7872;}</style></defs><title>logo-codeday</title><path class="cls-1" d="M26.7,52.37l-8,7.49c2.67,2.72,8.68,8,8.68,8S40.1,78.94,45.56,86.79l4.59,6.6,4.44-6.7c5.28-8,18.2-19.42,18.2-19.42s5.49-4.87,8-7.35l-8.11-7.35L50,74.62Z"/><path class="cls-1" d="M67.91,8.53A24.94,24.94,0,0,0,59.38,10h0l-.11,0-.49.2-1,.42-.56.26-.94.47-.51.27q-.6.33-1.18.7l-.2.12-.51.35v14l4.23-3.42a14.51,14.51,0,0,1,1.26-1.07A14.26,14.26,0,0,1,82.21,33.74a21.31,21.31,0,0,1-4.47,13.08l8.13,7.37a32.07,32.07,0,0,0,7.27-20.44A25.25,25.25,0,0,0,67.91,8.53Z"/><path class="cls-1" d="M42,23.45l4.17,3.37v-14l-.28-.2-.42-.27q-.59-.37-1.19-.7l-.61-.32L42.9,11l-.69-.31-.79-.33L40.71,10,40.58,10h0a24.93,24.93,0,0,0-8.41-1.47A25.25,25.25,0,0,0,7,33.74,32.73,32.73,0,0,0,13.73,54l8-7.57a22,22,0,0,1-3.89-12.73A14.26,14.26,0,0,1,40.58,22.22a14.51,14.51,0,0,1,1.28,1.06l.14.12Z"/><path class="cls-1" d="M69.89,85a5.79,5.79,0,0,1,.48-2.33,6,6,0,0,1,1.29-1.9,6.25,6.25,0,0,1,1.91-1.28,6,6,0,0,1,4.67,0,6.25,6.25,0,0,1,1.91,1.28,6,6,0,0,1,1.29,1.9A5.79,5.79,0,0,1,81.92,85a5.69,5.69,0,0,1-.48,2.32,6,6,0,0,1-11.08,0A5.69,5.69,0,0,1,69.89,85Zm.95,0a4.91,4.91,0,0,0,.4,2,5.22,5.22,0,0,0,1.08,1.62,5,5,0,0,0,7.17,0A5.22,5.22,0,0,0,80.57,87a4.91,4.91,0,0,0,.4-2,5,5,0,0,0-.4-2,5,5,0,0,0-2.69-2.69,5.14,5.14,0,0,0-4,0,5,5,0,0,0-2.69,2.69A5,5,0,0,0,70.84,85Zm2.72-3.4h2.37a4,4,0,0,1,.92.11,2.43,2.43,0,0,1,.81.34,1.8,1.8,0,0,1,.57.61,1.84,1.84,0,0,1,.21.92,1.71,1.71,0,0,1-.42,1.2,2.11,2.11,0,0,1-1.13.62l1.82,3H77.22l-1.58-2.82h-.87v2.82H73.56Zm2.19,3a2.59,2.59,0,0,0,1-.2.78.78,0,0,0,.48-.8.72.72,0,0,0-.44-.74,2.31,2.31,0,0,0-.91-.18H74.77v1.93Z"/></svg>