<svg id="Layer_1" data-name="Layer 1" xmlns="http://www.w3.org/2000/svg" viewBox="0 0 100.31 100"><defs><style>.cls-1{fill:#e89b62;}</style></defs><title>logo-codebreak</title><path class="cls-1" d="M69.72,89.6c-2.2,0-7.13,0-18.09-.08s-15.85.08-18.05.08c-8.32,0-12-3.32-13.64-6.1-2.42-4.15-1.83-9.51,1.78-15.93C27.62,57,35.52,42.83,37.41,39.43V13.69a5.41,5.41,0,0,1,5.4-5.4H60.49a5.4,5.4,0,0,1,5.4,5.4V39.43c1.89,3.41,9.81,17.66,15.69,28.14,3.6,6.42,4.2,11.78,1.77,15.93C81.73,86.28,78,89.6,69.72,89.6Zm5.35-18.37C68.33,59.21,58.78,42,58.68,41.83a2.07,2.07,0,0,1-.26-1V15.76H44.87V40.83a2.07,2.07,0,0,1-.26,1C44.52,42,35,59.21,28.23,71.22c-2.18,3.89-2.82,6.83-1.84,8.5s3.51,2.4,7.19,2.4c4.38,0,13.61-.05,17.22-.07h1.69c3.61,0,12.85.07,17.23.07,3.68,0,6.3-.87,7.19-2.4S77.25,75.12,75.07,71.22Z"/><path class="cls-1" d="M61.3,54.07H42c-3.16,5.67-6.77,12.09-9.82,17.59-3.16,5.69-1.55,6-1.58,6,.25.25-.05.79,4.4.79,4.07,0,11.88,0,16.66-.07s12.58.07,16.66.07c4.45,0,4.15-.54,4.4-.79,0,0,1.58-.26-1.58-6C68.07,66.16,64.46,59.74,61.3,54.07ZM47.45,68a4.83,4.83,0,1,1,4.82-4.83A4.83,4.83,0,0,1,47.45,68Zm10.74,5.42a2.71,2.71,0,1,1,2.71-2.71A2.71,2.71,0,0,1,58.19,73.41Z"/><ellipse class="cls-1" cx="53.79" cy="47.67" rx="4.4" ry="4.4"/><circle class="cls-1" cx="49.41" cy="35.31" r="2.24"/><circle class="cls-1" cx="53.79" cy="23.83" r="2.62"/></svg>