<?xml version="1.0" encoding="utf-8"?>
<!-- Generator: Adobe Illustrator 15.0.0, SVG Export Plug-In . SVG Version: 6.00 Build 0)  -->
<!DOCTYPE svg PUBLIC "-//W3C//DTD SVG 1.1//EN" "http://www.w3.org/Graphics/SVG/1.1/DTD/svg11.dtd" [
	<!ENTITY ns_flows "http://ns.adobe.com/Flows/1.0/">
	<!ENTITY ns_extend "http://ns.adobe.com/Extensibility/1.0/">
	<!ENTITY ns_ai "http://ns.adobe.com/AdobeIllustrator/10.0/">
	<!ENTITY ns_graphs "http://ns.adobe.com/Graphs/1.0/">
]>
<svg version="1.1" id="Layer_1" xmlns:x="&ns_extend;" xmlns:i="&ns_ai;" xmlns:graph="&ns_graphs;"
	 xmlns="http://www.w3.org/2000/svg" xmlns:xlink="http://www.w3.org/1999/xlink" xmlns:a="http://ns.adobe.com/AdobeSVGViewerExtensions/3.0/"
	 x="0px" y="0px" width="64px" height="64px" viewBox="0 0 64 64" enable-background="new 0 0 64 64" xml:space="preserve">
<path fill="#3B2C29" d="M19.729,16.642c-8.131,34.905-7.388,34.157,9.73,34.157C19.987,44.172,38.134,16.167,19.729,16.642z"/>
<path fill="#453631" d="M16.796,16.103c-5.935,26.518-0.814,33.329,3.731,34.696h5.21C13.548,42.211,32.602,15.58,16.796,16.103z"/>
<path fill="#3B2C29" d="M43.653,16.64c8.132,34.907,7.387,34.159-9.73,34.159C42.635,45.48,25.249,16.166,43.653,16.64z"/>
<path fill="#453631" d="M46.585,16.101c8.675,24.127-0.018,33.581-3.732,34.698h-5.207C49.837,42.91,30.782,15.578,46.585,16.101z"
	/>
<path fill="#594640" d="M48.028,29.066c2.512,6.133,0.027,18.721-5.176,21.733c5.767,0,9.277-7.979,10.99-18.956
	C55.981,18.128,43.554,18.121,48.028,29.066z"/>
<path fill="#594640" d="M10.185,34.389c2.1,9.906,4.685,16.41,10.343,16.41c-6.309-6.531-5.566-20.309-3.772-23.737
	C25.894,21.623,6.631,17.632,10.185,34.389z"/>
<path fill="#FFCC66" d="M31.792,8.253c-10.836,0-16.054,8.824-15.402,20.172c0.134,2.281,0.768,5.571,1.551,8.391
	c1.625,5.857,10.201,11.758,13.852,11.758c3.65,0,12.227-5.9,13.85-11.758c0.785-2.82,1.419-6.11,1.555-8.391
	C47.846,17.078,42.63,8.253,31.792,8.253z"/>
<path fill="#594640" d="M43.733,24.302c-2.442-1.455-6.82-1.633-8.555-0.643c-0.366,0.201-0.268,1.254,0.05,1.121
	c2.472-1.029,6.235-1.08,8.556,0.109C44.097,25.048,44.103,24.513,43.733,24.302z"/>
<path fill="#594640" d="M19.852,24.302c2.44-1.455,6.818-1.633,8.555-0.643c0.366,0.201,0.27,1.254-0.051,1.121
	c-2.473-1.029-6.234-1.082-8.555,0.109C19.489,25.048,19.481,24.513,19.852,24.302z"/>
<path fill="#E6B045" d="M35.151,35.258c0,2.184-6.719,2.184-6.719,0C28.432,34.754,35.151,34.754,35.151,35.258z"/>
<path fill="#FFFFFF" d="M43.497,28.734c-1.447,3.789-7.337,3.234-8.414,0.582C35.899,25.052,42.7,24.689,43.497,28.734z"/>
<path fill="#613F34" d="M36.558,28.322c0,3.357,4.854,3.357,4.854,0C41.411,25.207,36.558,25.207,36.558,28.322z"/>
<path fill="#7D5037" d="M37.037,29.396c0,1.926,3.894,1.926,3.894,0C40.931,27.609,37.037,27.609,37.037,29.396z"/>
<path fill="#1A1626" d="M37.977,28.375c0,1.393,2.015,1.393,2.015,0C39.991,27.083,37.977,27.083,37.977,28.375z"/>
<path fill="#AB968C" d="M37.288,27.968c0,0.703,1.018,0.703,1.018,0C38.306,27.314,37.288,27.314,37.288,27.968z"/>
<path fill="#45332C" d="M43.497,28.705c0-4.07-8.414-4.07-8.414,0.645C36.281,25.48,42.296,25.48,43.497,28.705z"/>
<path fill="#FFFFFF" d="M20.086,28.734c1.449,3.789,7.339,3.234,8.418,0.582C27.686,25.052,20.885,24.689,20.086,28.734z"/>
<path fill="#613F34" d="M22.174,28.328c0,3.355,4.852,3.355,4.852,0C27.026,25.212,22.174,25.212,22.174,28.328z"/>
<path fill="#7D5037" d="M22.653,29.402c0,1.924,3.895,1.924,3.895,0C26.547,27.615,22.653,27.615,22.653,29.402z"/>
<path fill="#1A1626" d="M23.592,28.38c0,1.393,2.017,1.393,2.017,0C25.609,27.085,23.592,27.085,23.592,28.38z"/>
<path fill="#AB968C" d="M22.905,27.972c0,0.705,1.018,0.705,1.018,0C23.922,27.32,22.905,27.32,22.905,27.972z"/>
<path fill="#45332C" d="M20.086,28.705c0-4.07,8.418-4.07,8.418,0.643C27.304,25.478,21.29,25.478,20.086,28.705z"/>
<path fill="#594640" d="M43.899,9.832c-7.598,7.785-0.346,8.289,4.129,19.234c2.512,6.133,4.102,13.754,5.814,2.777
	C55.981,18.128,47.761,8.687,43.899,9.832z"/>
<path fill="#594640" d="M25.249,6.849c-9.635,2.268-18.617,10.783-15.063,27.54c2.1,9.906,4.776-3.899,6.57-7.327
	c9.139-5.439,24.769-9.559,27.144-17.23C45.105,8.062,34.891,4.326,25.249,6.849z"/>
<path fill="#453631" d="M17.866,19.056c4.074-0.826,23.567-1.217,26.034-9.225C39.294,13.503,34.521,14.501,17.866,19.056z"/>
<path fill="#453631" d="M10.841,31.794c6.835-9.121,29.228-8.115,33.058-21.963C36.464,21.453,12.709,23.025,10.841,31.794z"/>
<path fill="#453631" d="M41.647,11.73c-1.766,2.779,4.364-1.305,10.971,16.6C50.99,17.861,45.407,10.656,41.647,11.73z"/>
<path fill="#FFCC66" d="M6.691,24.314c0.833,0.659,14.072,9.344,14.072,9.344l-1.536,5.539c-4.371-2.607-7.331-5.307-13.69-12.565
	C4.361,25.29,5.285,23.206,6.691,24.314z"/>
<path fill="#5D1E96" d="M51.691,49.1c-6.388-6.271-34.115-6.898-39.807,0.01C7.101,54.916,13.529,62,13.529,62h36.522
	C50.051,62,56.974,54.285,51.691,49.1z"/>
<path fill="#FFCC66" d="M57.281,24.42c-0.846,0.659-14.303,9.345-14.303,9.345l1.562,5.539c4.443-2.609,7.452-5.307,13.915-12.567
	C59.649,25.396,58.711,23.311,57.281,24.42z"/>
<path fill="#8E3ED6" d="M40.938,44.086c2.09-1.893,5.745-5.451,5.745-5.451l-2.704-6.417c0,0-5.031,3.017-12.206,6.511
	C24.6,35.234,19.57,32.217,19.57,32.217l-2.705,6.417c0,0,3.655,3.559,5.745,5.451c-10.62,5.51-17.662,11.359-11.402,16.965
	c3.835,3.439,11.083-3.094,20.566-9.598c9.483,6.504,16.732,13.037,20.567,9.598C58.602,55.445,51.559,49.596,40.938,44.086z"/>
<linearGradient id="SVGID_1_" gradientUnits="userSpaceOnUse" x1="32.4922" y1="54.9766" x2="40.228" y2="53.3336">
	<stop  offset="0" style="stop-color:#5D1E96"/>
	<stop  offset="0.1931" style="stop-color:#6C28AA"/>
	<stop  offset="0.4943" style="stop-color:#7F34C2"/>
	<stop  offset="0.7714" style="stop-color:#8A3BD1"/>
	<stop  offset="1" style="stop-color:#8E3ED6"/>
	<a:midPointStop  offset="0" style="stop-color:#5D1E96"/>
	<a:midPointStop  offset="0.3333" style="stop-color:#5D1E96"/>
	<a:midPointStop  offset="1" style="stop-color:#8E3ED6"/>
</linearGradient>
<path fill="url(#SVGID_1_)" d="M31.774,51.453l9.165-7.367l5.439,17.037C46.378,61.123,42.156,59.518,31.774,51.453z"/>
<linearGradient id="SVGID_2_" gradientUnits="userSpaceOnUse" x1="24.4194" y1="44.3633" x2="24.3372" y2="39.7018">
	<stop  offset="0" style="stop-color:#5D1E96"/>
	<stop  offset="0.1931" style="stop-color:#6C28AA"/>
	<stop  offset="0.4943" style="stop-color:#7F34C2"/>
	<stop  offset="0.7714" style="stop-color:#8A3BD1"/>
	<stop  offset="1" style="stop-color:#8E3ED6"/>
	<a:midPointStop  offset="0" style="stop-color:#5D1E96"/>
	<a:midPointStop  offset="0.3333" style="stop-color:#5D1E96"/>
	<a:midPointStop  offset="1" style="stop-color:#8E3ED6"/>
</linearGradient>
<path fill="url(#SVGID_2_)" d="M22.61,44.086l9.164-5.357l-14.909-0.094C16.865,38.635,19.753,41.703,22.61,44.086z"/>
</svg>
