<?xml version="1.0" encoding="utf-8"?>
<!-- Generator: Adobe Illustrator 15.0.0, SVG Export Plug-In . SVG Version: 6.00 Build 0)  -->
<!DOCTYPE svg PUBLIC "-//W3C//DTD SVG 1.1//EN" "http://www.w3.org/Graphics/SVG/1.1/DTD/svg11.dtd" [
	<!ENTITY ns_flows "http://ns.adobe.com/Flows/1.0/">
	<!ENTITY ns_extend "http://ns.adobe.com/Extensibility/1.0/">
	<!ENTITY ns_ai "http://ns.adobe.com/AdobeIllustrator/10.0/">
	<!ENTITY ns_graphs "http://ns.adobe.com/Graphs/1.0/">
]>
<svg version="1.1" id="Layer_1" xmlns:x="&ns_extend;" xmlns:i="&ns_ai;" xmlns:graph="&ns_graphs;"
	 xmlns="http://www.w3.org/2000/svg" xmlns:xlink="http://www.w3.org/1999/xlink" xmlns:a="http://ns.adobe.com/AdobeSVGViewerExtensions/3.0/"
	 x="0px" y="0px" width="64px" height="64px" viewBox="0 0 64 64" enable-background="new 0 0 64 64" xml:space="preserve">
<radialGradient id="SVGID_1_" cx="27.4238" cy="32.5459" r="25.1468" gradientTransform="matrix(1.0005 0 0 1.2466 -0.0195 -8.0255)" gradientUnits="userSpaceOnUse">
	<stop  offset="0.4909" style="stop-color:#FFCC66"/>
	<stop  offset="0.7208" style="stop-color:#FECA63"/>
	<stop  offset="0.8692" style="stop-color:#FAC45B"/>
	<stop  offset="0.9943" style="stop-color:#F2BB4C"/>
	<stop  offset="1" style="stop-color:#F2BA4B"/>
	<a:midPointStop  offset="0.4909" style="stop-color:#FFCC66"/>
	<a:midPointStop  offset="0.7882" style="stop-color:#FFCC66"/>
	<a:midPointStop  offset="1" style="stop-color:#F2BA4B"/>
</radialGradient>
<path fill="url(#SVGID_1_)" d="M53.24,36.379c-0.069-2.761-0.422-15.482-1.14-18.693c-0.493-2.207-1.403-5.744-4.012-10.158
	c-1.427-2.414-4.056-2.25-5.274-0.166c-0.854-0.848-1.979-1.893-3.566-3.424c-2.932-2.83-7.48-0.199-5.563,4.547
	c-1.852-1.105-5.528-1.668-7.169-2.418c-4.393-2.006-6.994,5.693,3.039,9.305c2.521,1.893,6.946,6.346,8.412,8.252
	c0.204,0.609,0.414,1.187,0.626,1.745c-0.352-0.182-0.664-0.317-0.937-0.401c-1.743-0.533-5.458-0.158-13.731-1.23
	c-3.57-0.461-3.803,2.07-10.29,7.816c-1.228,1.086-0.227,2.508,1.34,3.162c2.364,0.557,6.496-0.029,9.778-3.799
	c0,0,4.743,3.502,9.29,2.898c0,0,1.524,5.854,4.053,7.369c-2.226,3.744-6.274,2.773-7.654,4.959
	c-5.548,0.484-7.33-3.035-9.528-3.172c-0.482-4.707-3.511-7.322-5.938-8.256c-1.54-0.393-3.283-0.279-3.775,0.416
	c-1.307,1.848,0.702,3.711,0.784,10.271c0.061,5.061,3.25,7.045,12.665,13.818c5.644,4.057,22.652,2.105,24.792-6.607
	C51.005,46.239,53.72,40.222,53.24,36.379z"/>
<path fill="#D9A640" d="M35.02,9.475c-2.908-4.682,0.92-7.57,3.707-4.998c2.298,2.125,4.9,4.598,5.817,6.256
	c4.422,8.006,5.778,12.6,5.778,12.6s-0.606-4.928-4.456-13.307c-0.955-2.082-3.682-4.314-6.097-6.627
	c-3.373-3.232-8.365-0.49-7.08,4.428C33.495,8.324,34.253,8.906,35.02,9.475z"/>
<path fill="#D9A640" d="M37.825,25.471c0.611,0.193,1.218,0.398,1.821,0.617c-0.346-0.871-0.688-1.805-1.025-2.813
	c-1.534-1.992-6.203-6.67-8.713-8.557c-8.625-2.842-7.451-9.674-3.703-7.971c1.923,0.879,6.03,1.469,7.464,2.627
	c1.964,1.586,8.995,6.133,10.456,8.955c1.69,3.277,6.416,11.064,6.416,11.064s-2.973-7.674-5.081-11.752
	c-1.749-3.379-8.35-7.418-10.848-9.434c-1.799-1.455-6.139-2.074-7.784-2.824c-5.339-2.439-8.646,6.711,2.365,10.652
	c2.403,1.83,6.573,6,8.103,7.945C37.472,24.5,37.647,24.988,37.825,25.471z"/>
<path fill="#D9A640" d="M53.996,37.28c-0.301-10.81-0.194-15.43-1.161-19.757c-0.578-2.58-1.565-6.09-4.102-10.377
	c-1.716-2.904-4.839-2.732-6.391-0.424c0.362,0.369,0.706,0.758,1.046,1.148c0.899-1.76,2.852-1.994,4.053,0.037
	c2.427,4.107,3.373,7.471,3.926,9.941c0.698,3.124,1.146,12.549,1.146,17.724c0,6.594-2.175,10.243-3.805,16.86
	c-1.989,8.111-18.347,9.971-23.621,6.178c-9.126-6.547-12.297-8.48-12.354-13.217c-0.077-6.006-1.935-8.393-0.918-9.83
	c0.195-0.279,1.469-0.707,2.931-0.135c4.788,1.875,5.401,7.102,5.485,8.25c2.888-0.117,3.716,3.742,10.646,3.178
	c1.159-2.295,5.729-1.076,8.247-5.934c0,0-2.658-0.721-4.522-7.941c-4.8,0.955-9.959-3.082-9.959-3.082
	c-1.459,1.834-4.917,4.912-9.433,4.098c-0.723-0.129-1.894-1.162-1.077-1.885c6.841-6.061,6.625-8.035,9.696-7.633
	c7.286,0.957,12.395,0.832,13.606,1.203c1.282,0.393,8.903,4.635,8.903,4.635s-6.66-5.516-8.464-6.068
	c-1.522-0.467-7.136-0.359-13.854-1.258c-4.047-0.541-4.42,2.275-10.885,8c-1.161,1.027-0.809,2.201-0.475,2.773
	c-0.721,0.066-1.618,0.285-2.073,0.934c-1.598,2.254,0.565,4.191,0.643,10.713c0.064,5.346,3.326,7.492,12.978,14.416
	c5.968,4.293,23.654,2.359,25.96-7.037C51.61,46.921,54.107,41.282,53.996,37.28z M24.868,31.902
	c3.096,2.004,6.217,2.85,8.622,2.717c0.443,1.488,1.661,5.055,3.586,6.74c-2.042,2.693-5.405,2.047-7.039,4.061
	c-4.702,0.277-6.158-2.469-8.45-3.092c-0.456-3.084-1.968-5.32-3.719-6.766C19.627,35.334,22.357,34.527,24.868,31.902z"/>
</svg>
