<?xml version="1.0" encoding="utf-8"?>
<!-- Generator: Adobe Illustrator 19.0.0, SVG Export Plug-In . SVG Version: 6.00 Build 0)  -->
<svg version="1.1" id="Layer_1" xmlns="http://www.w3.org/2000/svg" xmlns:xlink="http://www.w3.org/1999/xlink" x="0px" y="0px"
	 width="64px" height="64px" viewBox="0 0 64 64" enable-background="new 0 0 64 64" xml:space="preserve">
<radialGradient id="SVGID_1_" cx="27.4213" cy="32.5463" r="25.1472" gradientTransform="matrix(1 0 0 1.2466 0 -8.0256)" gradientUnits="userSpaceOnUse">
	<stop  offset="0.4909" style="stop-color:#B88A6F"/>
	<stop  offset="0.7457" style="stop-color:#B6886C"/>
	<stop  offset="0.9102" style="stop-color:#B18064"/>
	<stop  offset="1" style="stop-color:#AB795B"/>
</radialGradient>
<path fill="url(#SVGID_1_)" d="M53.231,36.379c-0.07-2.762-0.422-15.482-1.141-18.693c-0.492-2.207-1.402-5.744-4.01-10.158
	c-1.426-2.414-4.053-2.25-5.271-0.166c-0.854-0.848-1.979-1.892-3.564-3.424c-2.93-2.83-7.477-0.199-5.561,4.547
	c-1.852-1.106-5.525-1.668-7.166-2.418c-4.391-2.006-6.99,5.693,3.037,9.305c2.52,1.893,6.943,6.346,8.408,8.252
	c0.205,0.609,0.414,1.185,0.627,1.744c-0.352-0.182-0.664-0.316-0.938-0.4c-1.742-0.533-5.455-0.158-13.725-1.23
	c-3.568-0.461-3.801,2.07-10.285,7.816c-1.226,1.086-0.226,2.508,1.34,3.162c2.363,0.557,6.492-0.029,9.773-3.799
	c0,0,4.74,3.502,9.285,2.898c0,0,1.523,5.854,4.051,7.369c-2.225,3.744-6.271,2.773-7.65,4.959
	c-5.545,0.484-7.326-3.035-9.523-3.172c-0.482-4.707-3.51-7.322-5.936-8.256c-1.539-0.393-3.281-0.279-3.773,0.416
	c-1.307,1.848,0.701,3.711,0.783,10.271c0.061,5.06,3.248,7.045,12.658,13.818c5.641,4.057,22.641,2.105,24.779-6.607
	C50.997,46.238,53.71,40.221,53.231,36.379z"/>
<path fill="#996748" d="M35.018,9.475c-2.906-4.682,0.92-7.57,3.705-4.998c2.297,2.125,4.898,4.598,5.814,6.256
	c4.42,8.006,5.775,12.6,5.775,12.6s-0.605-4.928-4.453-13.307c-0.955-2.082-3.68-4.314-6.094-6.627
	c-3.371-3.233-8.361-0.49-7.076,4.428C33.495,8.324,34.253,8.906,35.018,9.475z"/>
<path fill="#996748" d="M37.823,25.471c0.611,0.193,1.217,0.399,1.82,0.617c-0.346-0.871-0.688-1.805-1.025-2.813
	c-1.533-1.992-6.199-6.67-8.709-8.557c-8.621-2.842-7.447-9.674-3.701-7.971c1.922,0.879,6.027,1.469,7.461,2.627
	c1.963,1.586,8.99,6.133,10.451,8.955c1.689,3.277,6.412,11.064,6.412,11.064s-2.971-7.674-5.078-11.752
	c-1.748-3.379-8.346-7.418-10.842-9.434c-1.799-1.455-6.137-2.074-7.781-2.824c-5.336-2.44-8.641,6.711,2.363,10.652
	c2.402,1.83,6.57,6,8.1,7.945C37.469,24.5,37.645,24.988,37.823,25.471z"/>
<path fill="#996748" d="M53.985,37.279c-0.301-10.809-0.193-15.43-1.16-19.756c-0.578-2.58-1.564-6.09-4.1-10.377
	c-1.715-2.904-4.836-2.732-6.387-0.424c0.361,0.369,0.705,0.758,1.045,1.148c0.898-1.76,2.85-1.994,4.051,0.037
	c2.426,4.107,3.371,7.471,3.924,9.941c0.697,3.123,1.144,12.549,1.144,17.723c0,6.594-2.174,10.244-3.803,16.861
	c-1.988,8.111-18.338,9.971-23.609,6.178c-9.121-6.547-12.291-8.48-12.348-13.217c-0.076-6.006-1.934-8.393-0.918-9.83
	c0.195-0.279,1.469-0.707,2.93-0.135c4.785,1.875,5.398,7.102,5.482,8.25c2.887-0.117,3.715,3.742,10.641,3.178
	c1.158-2.295,5.727-1.076,8.242-5.934c0,0-2.656-0.721-4.52-7.941c-4.799,0.955-9.955-3.082-9.955-3.082
	c-1.459,1.834-4.914,4.912-9.428,4.098c-0.723-0.129-1.892-1.162-1.076-1.885c6.838-6.061,6.621-8.035,9.691-7.633
	c7.281,0.957,12.389,0.832,13.6,1.203c1.281,0.393,8.898,4.635,8.898,4.635s-6.656-5.516-8.459-6.068
	c-1.521-0.467-7.133-0.359-13.848-1.258c-4.045-0.541-4.418,2.275-10.879,8c-1.16,1.027-0.809,2.201-0.475,2.773
	c-0.721,0.066-1.617,0.285-2.072,0.934c-1.598,2.254,0.564,4.191,0.643,10.713c0.064,5.346,3.324,7.492,12.971,14.416
	c5.965,4.293,23.643,2.359,25.947-7.037C51.602,46.92,54.096,41.281,53.985,37.279z M24.872,31.903
	c3.094,2.004,6.213,2.85,8.617,2.717c0.443,1.488,1.66,5.055,3.584,6.74c-2.041,2.693-5.402,2.047-7.035,4.061
	c-4.699,0.277-6.154-2.469-8.445-3.092c-0.455-3.084-1.967-5.32-3.717-6.766C19.633,35.334,22.362,34.528,24.872,31.903z"/>
</svg>
