<?xml version="1.0" encoding="utf-8"?>
<!-- Generator: Adobe Illustrator 15.0.0, SVG Export Plug-In . SVG Version: 6.00 Build 0)  -->
<!DOCTYPE svg PUBLIC "-//W3C//DTD SVG 1.1//EN" "http://www.w3.org/Graphics/SVG/1.1/DTD/svg11.dtd" [
	<!ENTITY ns_flows "http://ns.adobe.com/Flows/1.0/">
	<!ENTITY ns_extend "http://ns.adobe.com/Extensibility/1.0/">
	<!ENTITY ns_ai "http://ns.adobe.com/AdobeIllustrator/10.0/">
	<!ENTITY ns_graphs "http://ns.adobe.com/Graphs/1.0/">
]>
<svg version="1.1" id="Layer_1" xmlns:x="&ns_extend;" xmlns:i="&ns_ai;" xmlns:graph="&ns_graphs;"
	 xmlns="http://www.w3.org/2000/svg" xmlns:xlink="http://www.w3.org/1999/xlink" xmlns:a="http://ns.adobe.com/AdobeSVGViewerExtensions/3.0/"
	 x="0px" y="0px" width="64px" height="64px" viewBox="0 0 64 64" enable-background="new 0 0 64 64" xml:space="preserve">
<radialGradient id="SVGID_1_" cx="382.5928" cy="-671.9775" r="46.1357" gradientTransform="matrix(0.7109 0.7199 -0.5521 0.5591 -619.223 120.9306)" gradientUnits="userSpaceOnUse">
	<stop  offset="0.4364" style="stop-color:#FFCC66"/>
	<stop  offset="0.6859" style="stop-color:#FECB64"/>
	<stop  offset="0.7967" style="stop-color:#FAC65D"/>
	<stop  offset="0.88" style="stop-color:#F4BD50"/>
	<stop  offset="0.903" style="stop-color:#F2BA4B"/>
	<a:midPointStop  offset="0.4364" style="stop-color:#FFCC66"/>
	<a:midPointStop  offset="0.844" style="stop-color:#FFCC66"/>
	<a:midPointStop  offset="0.903" style="stop-color:#F2BA4B"/>
</radialGradient>
<path fill="url(#SVGID_1_)" d="M49.982,12.256c-5.934,6.246-0.643,12.669-3.805,13.037c-0.822,0.093-3.168-2.602-3.168-2.602
	c-4.031-4.242-9.648-10.017-17.977-18.448c-4.188-4.244-10.426,2.065-6.232,6.314c-1.051-1.066-2.125-2.154-3.227-3.271
	c-4.186-4.238-10.459,2.039-6.234,6.313c1.129,1.144,2.197,2.228,3.229,3.271c-4.184-4.235-10.418,2.078-6.236,6.312
	c0.893,0.905,2.945,2.981,5.367,5.437c-4.352-4.04-9.428,1.284-5.395,5.657c4.59,4.974,14.027,14.989,19.082,20.091
	c7.246,7.316,18.063,9.85,25.932,1.57c17.109-17.998,0.375-26.264,4.678-43.599C56.527,10.191,52.945,9.142,49.982,12.256z"/>
<path fill="#0FB4D4" d="M43.021,15.578c-3.895-7.869-10.709-9.911-10.778-9.931c-1.354-0.392-0.932-1.884,0.422-1.488
	c0.305,0.087,7.534,2.255,11.729,10.726C44.996,16.104,43.66,16.87,43.021,15.578z"/>
<path fill="#0FB4D4" d="M45.043,10.355c-1.896-4.781-6.688-6.781-6.736-6.801c-1.318-0.536-0.748-1.971,0.572-1.438
	c0.221,0.089,5.443,2.251,7.586,7.662C46.957,11.016,45.57,11.688,45.043,10.355z"/>
<path fill="#0FB4D4" d="M17.003,51.854c-7.568-1.094-9.748-8.502-9.838-8.816c-0.387-1.367,1.082-1.793,1.475-0.428
	c0.08,0.275,2.012,6.762,8.576,7.711C18.591,50.519,18.222,52.032,17.003,51.854z"/>
<path fill="#0FB4D4" d="M15.992,57.021C7.47,55.944,4.261,48.604,4.13,48.294c-0.563-1.322,0.844-1.934,1.408-0.613
	c0.029,0.07,3.016,6.838,10.643,7.803C17.552,55.655,17.208,57.175,15.992,57.021z"/>
<path fill="#D9A640" d="M45.307,25.021c-2.965,3.249-2.676,13.277,3.254,18.768c-4.768-5.576-4.1-15.647-1.088-18.616L45.307,25.021
	z"/>
<path fill="#D9A640" d="M49.422,11.72c-5.627,5.803-1.787,12.515-3.248,12.806c-0.594,0.118-1.949-1.992-20.604-20.829
	c-3.656-3.692-8.818-0.537-8.928,3.584l-0.533-0.54c-4.92-4.968-12.27,2.407-7.32,7.406l0.541,0.549
	c-4.008,0.109-7.225,5.311-3.549,9.033l2.646,2.68c-3.869,0.028-6.051,4.755-2.691,8.397c4.559,4.939,13.984,14.945,19.1,20.109
	c9.508,9.6,20.182,8.762,27.04,1.568c17.502-18.359,0.627-26.908,4.857-43.957C57.439,9.668,53.186,7.841,49.422,11.72z
	 M55.244,12.15c-4.379,17.658,12.344,25.558-4.482,43.255c-5.834,6.133-15.381,7.965-24.84-1.584
	C20.818,48.667,11.41,38.681,6.859,33.748c-3.383-3.667,0.711-7.903,4.314-4.561l11.961,12.108L24.22,40.2L6.869,22.635
	c-2.674-2.705-0.148-6.393,2.59-6.391c0.914,0,1.799,0.406,2.557,1.173c0,0.001,17.354,17.566,17.354,17.566l1.086-1.095
	L9.876,13.053c-3.469-3.501,1.688-8.709,5.145-5.22l20.583,20.835l1.086-1.095L19.279,9.941c-3.428-3.604,1.797-8.592,5.205-5.15
	c19.26,19.445,19.987,21.496,21.774,21.273c4.313-0.541-1.535-7.284,4.271-13.271C52.885,10.365,55.566,10.844,55.244,12.15z"/>
</svg>
