<svg width="31px" height="31px" xmlns="http://www.w3.org/2000/svg" viewBox="0 0 100 100" preserveAspectRatio="xMidYMid" class="lds-zigzag" style="animation-play-state: running; animation-delay: 0s; background: rgba(0, 0, 0, 0) none repeat scroll 0% 0%;"><defs class="" style="animation-play-state: running; animation-delay: 0s;"><clipPath id="zigzag-clip-d2370c84aaa54" class="" style="animation-play-state: running; animation-delay: 0s;"><rect x="20" y="0" width="60" height="100" class="" style="animation-play-state: running; animation-delay: 0s;"></rect></clipPath></defs><path fill="none" stroke="#ff686b" stroke-width="7" stroke-linecap="round" stroke-linejoin="round" stroke-miterlimit="10" clip-path="url(#zigzag-clip-d2370c84aaa54)" d="M90,76.7V28.3c0-2.7-2.2-5-5-5h-3.4c-2.7,0-5,2.2-5,5v43.4c0,2.7-2.2,5-5,5h-3.4c-2.7,0-5-2.2-5-5V28.3c0-2.7-2.2-5-5-5H55 c-2.7,0-5,2.2-5,5v43.4c0,2.7-2.2,5-5,5h-3.4c-2.7,0-5-2.2-5-5V28.3c0-2.7-2.2-5-5-5h-3.4c-2.7,0-5,2.2-5,5v43.4c0,2.7-2.2,5-5,5H15 c-2.7,0-5-2.2-5-5V23.3" class="" style="animation-play-state: running; animation-delay: 0s;"><animateTransform attributeName="transform" type="translate" calcMode="linear" values="-20 0;7 0" keyTimes="0;1" dur="0.9s" begin="0s" repeatCount="indefinite" class="" style="animation-play-state: running; animation-delay: 0s;"></animateTransform><animate attributeName="stroke-dasharray" calcMode="linear" values="0 72 125 232;0 197 125 233" keyTimes="0;1" dur="0.9" begin="0s" repeatCount="indefinite" class="" style="animation-play-state: running; animation-delay: 0s;"></animate></path></svg>