<svg id="Layer_1" data-name="Layer 1" xmlns="http://www.w3.org/2000/svg" viewBox="0 0 81.72 13.35"><defs><style>.cls-1{fill:#ff686b;}</style></defs><title>wave-short</title><path class="cls-1" d="M78.81.67a13.35,13.35,0,0,0-3.74,3.1,13.55,13.55,0,0,1-2.35,2,3.32,3.32,0,0,1-2.68.6h0a5.66,5.66,0,0,1-2-.94A25.06,25.06,0,0,1,65.47,3.3a15,15,0,0,0-2.69-2,10,10,0,0,0-3-1.12,6.4,6.4,0,0,0-4.35.51,13.35,13.35,0,0,0-3.74,3.1,13.56,13.56,0,0,1-2.35,2,3.32,3.32,0,0,1-2.68.6h0a5.66,5.66,0,0,1-2-.94A25.06,25.06,0,0,1,42.12,3.3a15,15,0,0,0-2.69-2,10,10,0,0,0-3-1.12,6.4,6.4,0,0,0-4.35.51,13.35,13.35,0,0,0-3.74,3.1,13.55,13.55,0,0,1-2.35,2,3.32,3.32,0,0,1-2.68.6h0a5.66,5.66,0,0,1-2-.94A25.06,25.06,0,0,1,18.77,3.3a15,15,0,0,0-2.69-2,10,10,0,0,0-3-1.12A6.4,6.4,0,0,0,8.76.68,13.35,13.35,0,0,0,5,3.78a13.55,13.55,0,0,1-2.35,2A3.32,3.32,0,0,1,0,6.35v6.91a6.06,6.06,0,0,0,1.73,0,7,7,0,0,0,2.13-.74,10.1,10.1,0,0,0,1.85-1.3,13.67,13.67,0,0,0,1.56-1.6,10.69,10.69,0,0,1,2.42-2.1A3.48,3.48,0,0,1,12.36,7a7.43,7.43,0,0,1,2.55,1,16.6,16.6,0,0,1,2.45,2,14.84,14.84,0,0,0,2.49,2,8.38,8.38,0,0,0,2.76,1.05c.25.05.49.09.74.11h0a6.06,6.06,0,0,0,1.73,0,7,7,0,0,0,2.13-.74,10.1,10.1,0,0,0,1.85-1.3,13.67,13.67,0,0,0,1.56-1.6A10.69,10.69,0,0,1,33,7.48,3.48,3.48,0,0,1,35.71,7a7.43,7.43,0,0,1,2.55,1,16.6,16.6,0,0,1,2.45,2,14.84,14.84,0,0,0,2.49,2A8.38,8.38,0,0,0,46,13.15c.25.05.49.09.74.11h0a6.06,6.06,0,0,0,1.73,0,7,7,0,0,0,2.13-.74,10.1,10.1,0,0,0,1.85-1.3A13.69,13.69,0,0,0,54,9.57a10.69,10.69,0,0,1,2.42-2.1A3.48,3.48,0,0,1,59.06,7a7.43,7.43,0,0,1,2.55,1,16.6,16.6,0,0,1,2.45,2,14.84,14.84,0,0,0,2.49,2,8.38,8.38,0,0,0,2.76,1.05c.25.05.49.09.74.11h0a6,6,0,0,0,1.73,0,7,7,0,0,0,2.13-.74,10.11,10.11,0,0,0,1.85-1.3,13.67,13.67,0,0,0,1.56-1.6,10.69,10.69,0,0,1,2.42-2.1,3.41,3.41,0,0,1,2-.55V0A6.14,6.14,0,0,0,78.81.67Z"/></svg>